<svg xmlns="http://www.w3.org/2000/svg" width="1200" height="800" viewBox="0 0 1200 800" role="img" aria-label="College campus fallback image">
  <defs>
    <linearGradient id="sky" x1="0" x2="1" y1="0" y2="1">
      <stop offset="0%" stop-color="#dbeee6"/>
      <stop offset="100%" stop-color="#f7efe2"/>
    </linearGradient>
    <linearGradient id="building" x1="0" x2="0" y1="0" y2="1">
      <stop offset="0%" stop-color="#ffffff"/>
      <stop offset="100%" stop-color="#d8e2dd"/>
    </linearGradient>
  </defs>
  <rect width="1200" height="800" fill="url(#sky)"/>
  <circle cx="1030" cy="130" r="68" fill="#f1c15d" opacity="0.9"/>
  <rect x="0" y="610" width="1200" height="190" fill="#315b48"/>
  <path d="M0 610 C190 560 320 640 500 592 C695 538 820 612 1200 555 L1200 800 L0 800 Z" fill="#497a61"/>
  <rect x="230" y="330" width="740" height="290" rx="8" fill="url(#building)"/>
  <rect x="300" y="392" width="92" height="92" rx="4" fill="#8cb4a2"/>
  <rect x="430" y="392" width="92" height="92" rx="4" fill="#8cb4a2"/>
  <rect x="678" y="392" width="92" height="92" rx="4" fill="#8cb4a2"/>
  <rect x="808" y="392" width="92" height="92" rx="4" fill="#8cb4a2"/>
  <rect x="535" y="450" width="130" height="170" rx="4" fill="#315b48"/>
  <path d="M195 330 L600 170 L1005 330 Z" fill="#c8912f"/>
  <path d="M270 330 L600 205 L930 330 Z" fill="#f2d58d"/>
  <rect x="180" y="620" width="840" height="38" rx="4" fill="#17201d" opacity="0.18"/>
  <text x="600" y="715" text-anchor="middle" font-family="Arial, sans-serif" font-size="42" font-weight="700" fill="#ffffff">College Campus</text>
</svg>
